<?xml version="1.0" encoding="UTF-8" standalone="no"?>
<svg
   width="346.13312"
   height="542.57788"
   version="1.1"
   id="svg24"
   sodipodi:docname="ChatGPT Image 18 juni 2025 13_33_10.svg"
   inkscape:version="1.2.2 (732a01da63, 2022-12-09)"
   xmlns:inkscape="http://www.inkscape.org/namespaces/inkscape"
   xmlns:sodipodi="http://sodipodi.sourceforge.net/DTD/sodipodi-0.dtd"
   xmlns="http://www.w3.org/2000/svg"
   xmlns:svg="http://www.w3.org/2000/svg">
  <defs
     id="defs28" />
  <sodipodi:namedview
     id="namedview26"
     pagecolor="#ffffff"
     bordercolor="#000000"
     borderopacity="0.25"
     inkscape:showpageshadow="2"
     inkscape:pageopacity="0.0"
     inkscape:pagecheckerboard="0"
     inkscape:deskcolor="#d1d1d1"
     showgrid="false"
     inkscape:zoom="0.28898847"
     inkscape:cx="-626.32258"
     inkscape:cy="467.14667"
     inkscape:window-width="1920"
     inkscape:window-height="1017"
     inkscape:window-x="-8"
     inkscape:window-y="-8"
     inkscape:window-maximized="1"
     inkscape:current-layer="svg24" />
  <path
     fill="#1f3c5c"
     d="m 200.11335,174.96388 c 1.428,0.053 2.863,0.107 4.272,0.357 2.623,0.464 4.197,1.247 6.251,2.924 5.383,4.393 10.293,9.838 15.274,14.702 10.941,10.675 21.791,21.443 32.547,32.304 l 28.527,28.168 c 10.332,10.142 20.456,19.567 28.956,31.408 24.799,34.385 34.919,77.214 28.13,119.062 -7.146,43.629 -31.533,82.553 -67.675,108.016 -34.741,24.75 -79.229,35.694 -121.324,28.496 -35.44,-6.06 -71.968999,-24.143 -96.522999,-50.695 -14.369,-15.538 -26.173,-33.885 -38.447,-51.09 -5.522,-7.439 -17.9200002,-21.666 -19.76600017,-30.233 -0.865,-3.89 -0.039,-7.964 2.27399997,-11.209 2.602,-3.724 26.5970002,-26.726 30.4370002,-29.417 1.993,-1.396 4.272,-2.455 6.688,-2.835 3.759,-0.591 7.496,0.187 10.478,2.572 4.989,3.987 8.758,10.559 12.614,15.646 9.187,12.122 17.989,24.458 26.923,36.764 9.043,12.458 17.560999,26.863 30.131999,36.017 21.208,15.444 49.878,22.233 75.747,17.927 26.809,-4.384 50.731,-19.358 66.39,-41.556 23.494,-32.782 22.969,-77.025 -1.297,-109.239 -9.689,-13.02 -24.392,-25.555 -36.096,-37.193 -15.195,-15.11 -30.151,-30.496 -45.473,-45.471 -6.33,-6.187 -17.429,-13.841 -18.769,-23.036 -0.613,-4.205 0.66,-7.943 3.141,-11.317 3.142,-4.274 7.803,-7.606 11.557,-11.348 5.54,-5.522 10.594,-12.583 17.122,-16.909 2.636,-1.747 4.795,-2.372 7.91,-2.815 z"
     id="path18" />
  <path
     fill="#3274a4"
     d="m 159.22435,0.50387726 c 0.133,-0.018 0.265,-0.04 0.397,-0.054 7.323,-0.804 15.378,-0.381 22.732,0.113 33.67,2.26500004 64.678,13.54299974 91.208,34.58199974 6.903,5.474 13.587,11.682 19.549,18.17 9.241,10.055 16.988,21.677 25.301,32.518 4.322,5.636 9.762,11.197 13.432,17.235003 1.257,2.067 2.138,4.319 2.351,6.744 0.423,4.805 -1.376,8.134 -4.502,11.603 -3.989,4.426 -27.008,24.019 -31.803,26.586 -2.061,1.103 -4.665,1.678 -6.99,1.729 -3.818,0.084 -7.777,-1.165 -10.811,-3.481 -5.11,-3.9 -8.927,-10.043 -12.805,-15.129 -9.118,-11.956 -17.92,-25.225 -28.679,-35.718003 -18.28,-17.831 -42.536,-28.061 -68.144,-27.638 -26.988,0.445 -51.063,10.471 -69.775,30.027 -18.223999,18.791003 -28.229999,44.058003 -27.809999,70.231003 0.52,20.88 8.7,43.282 22.102,59.344 7.383999,8.851 16.454999,16.716 24.786999,24.682 l 49.853,49.084 c 6.326,6.275 14.049,12.43 19.554,19.39 1.791,2.265 2.796,4.058 3.124,6.98 0.394,3.503 -0.809,6.727 -3.005,9.434 -3.092,3.813 -7.387,7.212 -10.929,10.656 -6.549,6.368 -13.329,14.356 -20.831,19.553 -2.112,1.464 -4.617,2.689 -7.216,2.865 -5.452,0.369 -10.259,-1.997 -14.334,-5.435 -5.273,-4.448 -10.023,-9.827 -14.922,-14.713 l -31.670999,-31.768 c -15.165,-15.156 -31.759,-29.49 -45.654,-45.816 -21.417,-25.163 -35.1770002,-59.297 -37.8470002,-92.231 -3.72,-45.883 10.1350002,-87.632003 39.8440002,-122.585003 28.888,-33.987 69.252999,-53.4229997 113.493999,-56.95799974 z"
     id="path20" />
</svg>

