<?xml version="1.0" encoding="utf-8" ?>
<svg xmlns="http://www.w3.org/2000/svg" xmlns:xlink="http://www.w3.org/1999/xlink" width="1024" height="1024">
  <path fill="#1F3C5C" d="M536.854 359.166C538.282 359.219 539.717 359.273 541.126 359.523C543.749 359.987 545.323 360.77 547.377 362.447C552.76 366.84 557.67 372.285 562.651 377.149C573.592 387.824 584.442 398.592 595.198 409.453L623.725 437.621C634.057 447.763 644.181 457.188 652.681 469.029C677.48 503.414 687.6 546.243 680.811 588.091C673.665 631.72 649.278 670.644 613.136 696.107C578.395 720.857 533.907 731.801 491.812 724.603C456.372 718.543 419.843 700.46 395.289 673.908C380.92 658.37 369.116 640.023 356.842 622.818C351.32 615.379 338.922 601.152 337.076 592.585C336.211 588.695 337.037 584.621 339.35 581.376C341.952 577.652 365.947 554.65 369.787 551.959C371.78 550.563 374.059 549.504 376.475 549.124C380.234 548.533 383.971 549.311 386.953 551.696C391.942 555.683 395.711 562.255 399.567 567.342C408.754 579.464 417.556 591.8 426.49 604.106C435.533 616.564 444.051 630.969 456.622 640.123C477.83 655.567 506.5 662.356 532.369 658.05C559.178 653.666 583.1 638.692 598.759 616.494C622.253 583.712 621.728 539.469 597.462 507.255C587.773 494.235 573.07 481.7 561.366 470.062C546.171 454.952 531.215 439.566 515.893 424.591C509.563 418.404 498.464 410.75 497.124 401.555C496.511 397.35 497.784 393.612 500.265 390.238C503.407 385.964 508.068 382.632 511.822 378.89C517.362 373.368 522.416 366.307 528.944 361.981C531.58 360.234 533.739 359.609 536.854 359.166Z"/>
  <path fill="#3274A4" d="M495.965 184.706C496.098 184.688 496.23 184.666 496.362 184.652C503.685 183.848 511.74 184.271 519.094 184.765C552.764 187.03 583.772 198.308 610.302 219.347C617.205 224.821 623.889 231.029 629.851 237.517C639.092 247.572 646.839 259.194 655.152 270.035C659.474 275.671 664.914 281.232 668.584 287.27C669.841 289.337 670.722 291.589 670.935 294.014C671.358 298.819 669.559 302.148 666.433 305.617C662.444 310.043 639.425 329.636 634.63 332.203C632.569 333.306 629.965 333.881 627.64 333.932C623.822 334.016 619.863 332.767 616.829 330.451C611.719 326.551 607.902 320.408 604.024 315.322C594.906 303.366 586.104 290.097 575.345 279.604C557.065 261.773 532.809 251.543 507.201 251.966C480.213 252.411 456.138 262.437 437.426 281.993C419.202 300.784 409.196 326.051 409.616 352.224C410.136 373.104 418.316 395.506 431.718 411.568C439.102 420.419 448.173 428.284 456.505 436.25L506.358 485.334C512.684 491.609 520.407 497.764 525.912 504.724C527.703 506.989 528.708 508.782 529.036 511.704C529.43 515.207 528.227 518.431 526.031 521.138C522.939 524.951 518.644 528.35 515.102 531.794C508.553 538.162 501.773 546.15 494.271 551.347C492.159 552.811 489.654 554.036 487.055 554.212C481.603 554.581 476.796 552.215 472.721 548.777C467.448 544.329 462.698 538.95 457.799 534.064L426.128 502.296C410.963 487.14 394.369 472.806 380.474 456.48C359.057 431.317 345.297 397.183 342.627 364.249C338.907 318.366 352.762 276.617 382.471 241.664C411.359 207.677 451.724 188.241 495.965 184.706Z"/>
  <path fill="#EEE" d="M52.3071 761.965L52.8372 762.097L52.7992 762.881C49.4335 764.477 46.2178 766.097 43.084 768.115L42.4504 768.434L41.8257 767.951L41.9642 767.125C44.6292 764.888 49.1204 763.517 52.3071 761.965Z"/>
</svg>
