<?xml version="1.0" encoding="UTF-8" standalone="no"?>
<svg
   width="2381.5071"
   height="613.07605"
   viewBox="0 0 2381.5071 613.07605"
   version="1.1"
   id="svg3608"
   sodipodi:docname="SystemBySelections.svg"
   inkscape:version="1.2.2 (732a01da63, 2022-12-09)"
   inkscape:export-filename="SystemBySelections.png"
   inkscape:export-xdpi="96"
   inkscape:export-ydpi="96"
   xmlns:inkscape="http://www.inkscape.org/namespaces/inkscape"
   xmlns:sodipodi="http://sodipodi.sourceforge.net/DTD/sodipodi-0.dtd"
   xmlns="http://www.w3.org/2000/svg"
   xmlns:svg="http://www.w3.org/2000/svg">
  <defs
     id="defs3612">
    <rect
       x="525.94983"
       y="133.87814"
       width="372.94623"
       height="334.69534"
       id="rect14596" />
  </defs>
  <sodipodi:namedview
     id="namedview3610"
     pagecolor="#ffffff"
     bordercolor="#000000"
     borderopacity="0.25"
     inkscape:showpageshadow="2"
     inkscape:pageopacity="0.0"
     inkscape:pagecheckerboard="0"
     inkscape:deskcolor="#d1d1d1"
     showgrid="false"
     showguides="true"
     inkscape:zoom="0.22183223"
     inkscape:cx="1566.4992"
     inkscape:cy="31.555379"
     inkscape:window-width="1920"
     inkscape:window-height="1017"
     inkscape:window-x="-8"
     inkscape:window-y="-8"
     inkscape:window-maximized="1"
     inkscape:current-layer="svg3608">
    <sodipodi:guide
       position="4.5079117,608.56814"
       orientation="0,410.15109"
       id="guide11630"
       inkscape:locked="false" />
    <sodipodi:guide
       position="414.659,608.56814"
       orientation="602.0592,0"
       id="guide11632"
       inkscape:locked="false" />
    <sodipodi:guide
       position="414.659,6.5089369"
       orientation="0,-410.15109"
       id="guide11634"
       inkscape:locked="false" />
    <sodipodi:guide
       position="4.5079117,6.5089369"
       orientation="-602.0592,0"
       id="guide11636"
       inkscape:locked="false" />
    <sodipodi:guide
       position="484.51134,402.69613"
       orientation="1,0"
       id="guide4851"
       inkscape:locked="false" />
  </sodipodi:namedview>
  <rect
     style="display:none;fill:#f7f7f7;fill-opacity:1;stroke-width:86.8196"
     id="rect14716"
     width="2384.6235"
     height="613.07605"
     x="0"
     y="0" />
  <rect
     style="display:none;fill:#ffffff;fill-opacity:1;stroke-width:75.5906"
     id="rect958"
     width="1807.6725"
     height="613.07605"
     x="0"
     y="0" />
  <path
     fill="#d8dada"
     d="M -60.385219,-28.345491 H 517.61478 V 638.65451 H -60.385219 Z M 149.90278,340.78851 c -2.443,1.784 -8.303,6.819 -9.791,9.323 2.644,-2.007 8.352,-7.427 11.484,-8.286 1.346,0.899 4.561,3.541 5.799,4.708 -11.863,4.913 -25.061,9.952 -31.545,22.284 8.018,-8.362 16.927,-11.876 27.903,-14.746 2.306,-0.603 7.658,-1.875 9.474,-2.723 l 0.503,0.155 c 3.641,2.889 7.844,6.082 11.281,9.135 -12.967,2.273 -24.969,4.136 -36.717,10.513 -3.323,1.804 -5.636,3.796 -8.286,5.323 l -50.749999,-46.38 c -20.77,20.298 -42.8885,39.826 -64.1427,59.691 -10.3461003,9.671 -11.1198003,23.175 -0.9922,33.445 5.6056,5.557 11.5621,10.799 17.3616,16.172 l 33.5013,30.981 95.003999,87.606 c 11.505,10.404 22.931,20.897 34.276,31.476 4.714,4.374 11.817,10.581 16.154,15.115 9.265,-7.995 18.067,-16.616 27.02,-24.939 6.425,-5.972 13.315,-11.781 19.627,-17.907 2.183,-2.118 7.938,-7.284 9.58,-9.684 2.186,-1.045 9.847,-8.003 12.162,-9.984 6.143,-6.009 12.637,-11.36 18.591,-17.591 2.323,-2.433 5.188,-4.379 7.418,-7.134 l 0.838,-1.108 c 2.313,-1.25 7.631,-6.626 9.535,-8.747 2.498,-2.212 4.291,-3.996 6.603,-6.38 l 4.521,-4.155 c 5.835,-4.186 13.378,-11.807 18.825,-16.836 6.563,-6.059 13.138,-12.133 19.717,-18.18 l 31.02,-28.542 c 4.525,-4.174 9.584,-8.355 13.838,-12.669 6.8,-6.896 8.048,-18.452 1.302,-25.858 -3.654,-4.01 -7.45,-7.419 -11.321,-11.086 l -16.782,-16.081 c -21.671,-20.882 -43.619,-41.474 -65.839,-61.77 l -171.85,-159.023 c -14.029,-12.764 -28.504,-18.124 -47.400999,-17.203 -9.489,0.537 -18.713,3.336 -26.902,8.163 -8.323,4.825 -12.49,9.246 -19.475,15.626 l -22.7664,21.162 c -5.9363,5.449 -12.2625,10.557 -17.8884,16.279 -6.2470003,6.304 -6.8858003,16.489 -0.7649,23.112 5.1913,5.617 11.6018,10.896 17.3269,16.012 l 27.4798,24.961 58.147999,52.486 c 12.175,11.003 24.6,22.483 36.921,33.284 z m 60.582,-336.2806012 -33.242,30.7164002 c -14.143,12.9985 -30.105,24.1658 -30.856,45.2082 -0.401,11.232 2.981,22.482001 10.709,30.945001 3.866,4.061 9.11,8.357 13.376,12.399 14.053,13.13 28.202,26.155 42.446,39.076 l 74.262,68.516 c 17.866,16.401 36.81,33.247 54.163,50.066 1.837,-1.628 3.635,-3.301 5.39,-5.018 14.203,-13.536 28.962,-26.513 43.212,-40.042 6.683,-6.345 15.026,-13.217 20.927,-20.254 1.964,-2.342 3.901,-8.395 3.782,-11.423 -0.268,-6.829 -1.799,-11.348 -6.653,-16.054 -8.235,-7.983 -16.653,-15.546 -24.936,-23.381 l -79.465,-73.920001 -63.852,-59.6655 -19.27,-17.8509 c -2.679,-2.4993 -7.311,-7.1553002 -9.993,-9.3182002 z"
     id="path3510"
     style="display:none" />
  <path
     fill="#444444"
     d="m 79.257781,330.09451 50.749999,46.38 3.071,2.744 c 3.31,3.072 6.686,6.153 9.954,9.263 1.441,1.346 7.342,7.077 8.545,7.942 3.576,3.782 13.438,13.659 17.542,16.34 2.43,2.32 6.374,6.192 9.087,8.134 2.835,2.61 5.565,5.157 8.541,7.607 1.079,1.031 4.083,4.031 5.133,4.781 3.027,2.803 5.998,5.576 9.13,8.264 0.573,0.54 2.089,2.045 2.632,2.454 7.158,6.846 14.417,13.586 21.774,20.217 4.933,4.533 10.598,9.94 15.65,14.249 0.729,0.715 1.538,1.551 2.3,2.211 4.792,3.962 10.771,9.24 15.329,13.481 -0.005,-2.39 -0.138,-7.935 0.323,-10.056 0.042,3.372 0.034,6.745 -0.022,10.117 2.989,2.17 7.324,7.792 9.616,10.916 3.507,6.535 5.52,13.767 5.894,21.173 -0.227,4.1 -0.838,8.821 -1.935,12.797 -1.711,4.864 -3.467,8.404 -5.925,12.942 -1.642,2.4 -7.397,7.566 -9.58,9.684 -6.312,6.126 -13.202,11.935 -19.627,17.907 -8.953,8.323 -17.755,16.944 -27.02,24.939 -4.337,-4.534 -11.44,-10.741 -16.154,-15.115 -11.345,-10.579 -22.771,-21.072 -34.276,-31.476 l -95.003999,-87.606 -33.5013,-30.981 c -5.7995,-5.373 -11.756,-10.615 -17.3616,-16.172 -10.1276003,-10.27 -9.3539003,-23.774 0.9922,-33.445 21.2542,-19.865 43.3727,-39.393 64.1427,-59.691 z"
     id="path3532"
     style="display:none" />
  <path
     id="path3514"
     style="display:none;fill:#acf121;fill-opacity:1"
     d="m 104.71048,129.65451 c -2.2317,-0.0833 -4.52459,-0.0663 -6.886719,0.0488 -9.48899,0.537 -18.71335,3.33707 -26.90234,8.16406 -8.32299,4.825 -12.48962,9.24501 -19.47461,15.625 l -22.765624,21.16214 c -5.936294,5.44899 -12.262777,10.5573 -17.888672,16.2793 -6.2469933,6.30399 -6.8865193,16.48833 -0.765625,23.11132 5.191295,5.617 11.601078,10.89573 17.326172,16.01172 l 27.480469,24.96094 58.148439,52.48633 c 12.17499,11.00299 24.59893,22.48417 36.91992,33.28516 l 0.32617,0.15039 c 0.614,0.399 0.69733,0.50139 1.36133,0.77539 l 0.006,0.11133 c 1.346,0.89899 4.56083,3.54003 5.79883,4.70703 l 0.24218,-0.041 c 1.893,1.584 3.75685,3.20247 5.58985,4.85547 l 0.5039,0.15625 c 3.641,2.889 7.84426,6.08177 11.28125,9.13477 l 0.74024,0.36328 c 1.658,1.39499 6.21038,5.06536 7.48437,6.44336 l 1.44922,0.94726 c 4.585,3.989 9.0851,8.07486 13.4961,12.25586 l 1.04687,0.72461 c 3.514,3.364 7.3101,6.37378 10.9961,9.55078 0.60699,0.425 1.42809,0.96816 1.99609,1.41016 7.62499,7.30299 15.56266,13.5574 23.09765,20.65039 4.554,3.46899 10.46704,7.98138 14.33204,12.23437 1.66299,1.324 3.29362,2.68685 4.89062,4.08985 2.301,2.28899 5.70508,5.19031 7.70508,7.32031 2.611,2.005 19.43828,16.69553 20.98828,18.64453 l 8.29883,7.53711 c 8.64299,7.35799 18.75336,15.26393 24.56836,25.04492 3.89899,6.21 3.24836,7.52201 5.69336,13.25 l 4.51953,-4.15429 c 5.83499,-4.186 13.37918,-11.80695 18.82617,-16.83594 6.56299,-6.059 13.1378,-12.1327 19.7168,-18.17969 l 31.01953,-28.54297 c 4.52499,-4.17399 9.58389,-8.35397 13.83789,-12.66797 6.79999,-6.89599 8.04873,-18.45143 1.30273,-25.85742 -3.65399,-4.01 -7.45127,-7.41894 -11.32226,-11.08594 L 382.91361,367.69943 C 361.24263,346.81745 339.2957,326.22588 317.07572,305.9299 L 145.22416,146.90646 c -12.27537,-11.16849 -24.89177,-16.6685 -40.51368,-17.25195 z m 85.64844,90.8418 c -0.0212,1.2485 -0.17475,2.23558 -0.42383,3.08008 -0.24908,0.84449 -0.59328,1.54656 -0.99609,2.22656 0.40281,-0.68 0.74701,-1.38207 0.99609,-2.22656 0.24908,-0.8445 0.40258,-1.83158 0.42383,-3.08008 z m 0.45117,0.9707 c 0.0345,0.94775 0.24088,1.7748 0.55664,2.53516 0.31577,0.76035 0.74249,1.45518 1.2168,2.14062 -0.47431,-0.68544 -0.90103,-1.38027 -1.2168,-2.14062 -0.31576,-0.76036 -0.52214,-1.58741 -0.55664,-2.53516 z m -4.6914,9.10547 c 0.35475,0.33775 0.72026,0.65475 1.09179,0.96094 -0.37153,-0.30619 -0.73704,-0.62319 -1.09179,-0.96094 z m 2.52148,5.65039 c -0.2645,1.0975 -0.60244,2.58364 -1.02344,4.02539 -0.2105,0.72087 -0.44156,1.43152 -0.69531,2.07617 -0.25375,0.64466 -0.53033,1.22335 -0.83008,1.6836 -0.767,1.17749 -1.58592,2.30909 -2.42968,3.41015 -0.84377,1.10106 -1.71157,2.17132 -2.58008,3.23242 0.86851,-1.0611 1.73631,-2.13136 2.58008,-3.23242 0.84376,-1.10106 1.66268,-2.23266 2.42968,-3.41015 0.29975,-0.46025 0.57633,-1.03894 0.83008,-1.6836 0.25375,-0.64465 0.48481,-1.3553 0.69531,-2.07617 0.421,-1.44175 0.75894,-2.92789 1.02344,-4.02539 z m 3.75781,0.74609 c 0.39875,1.78075 0.8435,3.3306 1.35938,4.73828 0.51587,1.40769 1.10372,2.67443 1.79297,3.88868 0.68925,1.21425 1.47956,2.37573 2.39843,3.57617 0.91888,1.20043 1.96713,2.43844 3.17188,3.80469 -1.20475,-1.36625 -2.253,-2.60426 -3.17188,-3.80469 -0.91887,-1.20044 -1.70918,-2.36192 -2.39843,-3.57617 -0.68925,-1.21425 -1.2771,-2.48099 -1.79297,-3.88868 -0.51588,-1.40768 -0.96063,-2.95753 -1.35938,-4.73828 z m -1.99609,1.98633 c -0.0633,1.28125 -0.0928,2.58517 -0.10352,3.90039 0.0107,-1.31522 0.0403,-2.61914 0.10352,-3.90039 z m -0.69336,25.28711 c -0.10631,1.60825 -0.20145,3.2138 -0.26172,4.78711 0.0603,-1.57331 0.15541,-3.17886 0.26172,-4.78711 z m -0.31055,9.38281 c -1.7365,0.30125 -3.26095,0.57783 -4.67382,0.86914 1.41287,-0.29131 2.93732,-0.56789 4.67382,-0.86914 z m 21.81836,7.41211 c -0.86975,1.63525 -1.46795,2.97633 -1.87695,4.17774 -0.409,1.2014 -0.62803,2.26422 -0.73828,3.33984 -0.11025,1.07562 -0.11244,2.16397 -0.0859,3.42188 -0.0265,-1.25791 -0.0243,-2.34626 0.0859,-3.42188 0.11025,-1.07562 0.32928,-2.13844 0.73828,-3.33984 0.409,-1.20141 1.0072,-2.54249 1.87695,-4.17774 z m -41.41601,2.41797 c 0.831,0.721 1.67375,1.43341 2.46875,2.19141 0.2,2.396 0.41025,8.72963 0.46875,14.96875 0.0292,3.11956 0.0216,6.21677 -0.0449,8.78515 -0.0665,2.56839 -0.19203,4.60794 -0.39453,5.61719 -0.37575,1.21475 -1.0034,2.49783 -1.78906,3.79883 -0.78565,1.301 -1.72805,2.61986 -2.73242,3.91211 -2.00875,2.5845 -4.26546,5.05761 -6.00195,7.03711 1.73649,-1.9795 3.9932,-4.45261 6.00195,-7.03711 1.00437,-1.29225 1.94677,-2.61111 2.73242,-3.91211 0.78566,-1.301 1.41331,-2.58408 1.78906,-3.79883 0.2025,-1.00925 0.32804,-3.0488 0.39453,-5.61719 0.0665,-2.56838 0.0742,-5.66559 0.0449,-8.78515 -0.0585,-6.23912 -0.26875,-12.57275 -0.46875,-14.96875 -0.795,-0.758 -1.63775,-1.47041 -2.46875,-2.19141 z m 15.10351,1.42383 c 0.0569,0.002 0.10538,0.0104 0.15235,0.0254 0.0939,0.03 0.18223,0.0903 0.32421,0.19531 -0.14198,-0.10506 -0.23028,-0.16531 -0.32421,-0.19531 -0.0939,-0.03 -0.19261,-0.031 -0.35547,-0.0176 0.0814,-0.007 0.14623,-0.01 0.20312,-0.008 z m -2.74609,1.87305 c -0.22951,0.36299 -0.42701,0.75364 -0.5957,1.16992 -0.1687,0.41628 -0.30893,0.85742 -0.42579,1.31836 -0.11685,0.46093 -0.21117,0.94249 -0.28515,1.43945 -0.074,0.49696 -0.12788,1.00884 -0.16797,1.5332 0.0401,-0.52436 0.094,-1.03624 0.16797,-1.5332 0.074,-0.49696 0.1683,-0.97852 0.28515,-1.43945 0.11686,-0.46094 0.25709,-0.90208 0.42579,-1.31836 0.16869,-0.41628 0.36619,-0.80693 0.5957,-1.16992 z m -5.86328,1.83984 c 0.0594,0.16344 0.11508,0.38012 0.16601,0.64258 -0.0509,-0.26246 -0.10664,-0.47914 -0.16601,-0.64258 z m -0.28907,0.42383 c -0.0877,0.20457 -0.16755,0.46924 -0.23828,0.78711 -0.0707,0.31786 -0.13256,0.68915 -0.1875,1.10351 0.0549,-0.41436 0.11678,-0.78565 0.1875,-1.10351 0.0707,-0.31787 0.15056,-0.58254 0.23828,-0.78711 z m 0.59571,1.13867 c 0.0859,0.69719 0.1559,1.55313 0.21289,2.51758 0.057,0.96445 0.10096,2.03735 0.13281,3.16601 -0.0318,-1.12866 -0.0758,-2.20156 -0.13281,-3.16601 -0.057,-0.96445 -0.12694,-1.82039 -0.21289,-2.51758 z m -1.16406,2.11719 c -0.0807,0.98815 -0.13435,2.11988 -0.16407,3.32617 -0.0297,1.20629 -0.037,2.48722 -0.0254,3.77734 0.0116,1.29013 0.0427,2.58847 0.0859,3.82813 0.0432,1.23966 0.099,2.42166 0.16406,3.47656 0.0651,1.05491 0.13953,1.9829 0.2168,2.71875 0.0773,0.73585 0.15853,1.28 0.23828,1.5625 -0.0797,-0.2825 -0.16101,-0.82665 -0.23828,-1.5625 -0.0773,-0.73585 -0.15171,-1.66384 -0.2168,-2.71875 -0.0651,-1.0549 -0.12087,-2.2369 -0.16406,-3.47656 -0.0432,-1.23966 -0.0743,-2.538 -0.0859,-3.82813 -0.0116,-1.29012 -0.004,-2.57105 0.0254,-3.77734 0.0297,-1.20629 0.0833,-2.33802 0.16407,-3.32617 z m 11.25,4.35742 c -0.0785,0.7915 -0.15267,1.58561 -0.2168,2.37891 -0.0641,0.79329 -0.11815,1.58698 -0.15625,2.38086 -0.0381,0.79387 -0.0601,1.58762 -0.0606,2.38085 -4.3e-4,0.79324 0.0214,1.58558 0.0703,2.37696 -0.0489,-0.79138 -0.0707,-1.58372 -0.0703,-2.37696 4.3e-4,-0.79323 0.0225,-1.58698 0.0606,-2.38085 0.0381,-0.79388 0.0921,-1.58757 0.15625,-2.38086 0.0641,-0.7933 0.13826,-1.58741 0.2168,-2.37891 z m -9.67774,2.71289 c 0.0211,2.37962 0.004,4.7773 -0.0371,6.7832 -0.041,2.00591 -0.10523,3.61999 -0.17773,4.42774 0.0725,-0.80775 0.1367,-2.42183 0.17773,-4.42774 0.041,-2.0059 0.0582,-4.40358 0.0371,-6.7832 z m 31.51563,3.27539 c -0.007,1.97862 0.0447,3.87656 0.28711,5.72656 0.12121,0.925 0.29136,1.83758 0.52343,2.74219 0.23207,0.90461 0.52714,1.8013 0.90235,2.69336 0.37521,0.89206 0.83021,1.78061 1.38086,2.66797 0.55064,0.88736 1.1967,1.77356 1.95507,2.66406 3.005,3.982 5.79051,7.49491 9.0625,11.37891 -0.28737,0.008 -0.63212,-0.0294 -1.02148,-0.10156 0.38936,0.0722 0.73411,0.10968 1.02148,0.10156 -3.27199,-3.884 -6.0575,-7.39691 -9.0625,-11.37891 -0.75837,-0.8905 -1.40443,-1.7767 -1.95507,-2.66406 -0.55065,-0.88736 -1.00565,-1.77591 -1.38086,-2.66797 -0.37521,-0.89206 -0.67028,-1.78875 -0.90235,-2.69336 -0.23207,-0.90461 -0.40222,-1.81719 -0.52343,-2.74219 -0.24244,-1.85 -0.29432,-3.74794 -0.28711,-5.72656 z m -5.04297,2.33008 c -0.0781,2.11387 -0.15102,3.80036 -0.16602,4.56836 0.015,-0.768 0.088,-2.45449 0.16602,-4.56836 z m -19.24414,3.45898 c 0.13361,0.17172 0.22188,0.29494 0.29492,0.40039 -0.0804,-0.11919 -0.0948,-0.14313 -0.29492,-0.40039 z m 26.82812,23.07617 c 1.01125,0.24325 1.99694,0.5094 2.96485,0.79493 -0.96791,-0.28553 -1.9536,-0.55168 -2.96485,-0.79493 z m -40.15429,4.82227 c -1.604,0.28325 -3.24329,0.59447 -4.89063,0.94531 1.64734,-0.35084 3.28663,-0.66206 4.89063,-0.94531 z m 46.91601,1.80664 c 1.38164,0.37184 2.75536,0.77323 4.12109,1.20508 1.36574,0.43185 2.72256,0.89429 4.07032,1.38672 1.34776,0.49242 2.68595,1.01479 4.01367,1.56836 1.32772,0.55357 2.64556,1.13862 3.95117,1.7539 1.30561,0.61529 2.59942,1.2619 3.88086,1.93946 -1.28144,-0.67756 -2.57525,-1.32417 -3.88086,-1.93946 -1.30561,-0.61528 -2.62345,-1.20033 -3.95117,-1.7539 -1.32772,-0.55357 -2.66591,-1.07594 -4.01367,-1.56836 -1.34776,-0.49243 -2.70458,-0.95487 -4.07032,-1.38672 -1.36573,-0.43185 -2.73945,-0.83324 -4.12109,-1.20508 z m 48.05859,34.29883 c 0.92628,1.36797 1.8592,2.74952 2.82813,4.01758 -0.97282,-1.27316 -1.89808,-2.64409 -2.82813,-4.01758 z m -12.40039,6.69141 c 1.49809,0.63381 2.96994,1.29485 4.40821,1.98632 -1.43827,-0.69147 -2.91012,-1.35251 -4.40821,-1.98632 z m -20.0332,16.01171 c 2.48551,0.6143 4.55224,1.17172 5.74023,1.51172 2.40838,0.689 4.84138,1.41864 7.28321,2.19727 -2.44183,-0.77863 -4.87483,-1.50827 -7.28321,-2.19727 -1.18799,-0.34 -3.25472,-0.89742 -5.74023,-1.51172 z m 61.92188,30.12891 c 2.33949,5.72649 4.88905,11.40912 7.52929,17.05273 2.64025,5.64362 5.37168,11.24751 8.07617,16.8125 -2.70449,-5.56499 -5.43592,-11.16888 -8.07617,-16.8125 -2.64024,-5.64361 -5.1898,-11.32624 -7.52929,-17.05273 z" />
  <path
     fill="#444444"
     d="m 341.34278,281.43451 c -17.353,-16.819 -36.297,-33.665 -54.163,-50.066 l -74.262,-68.516 c -14.244,-12.921 -28.393,-25.946 -42.446,-39.076 -4.266,-4.042 -9.51,-8.338 -13.376,-12.399 -7.728,-8.463 -11.11,-19.713001 -10.709,-30.945001 0.751,-21.0424 16.713,-32.2097 30.856,-45.2082 l 33.242,-30.7164002 c 2.682,2.1629 7.314,6.8189002 9.993,9.3182002 l 19.27,17.8509 63.852,59.6655 79.465,73.920001 c 8.283,7.835 16.701,15.398 24.936,23.381 4.854,4.706 6.385,9.225 6.653,16.054 0.119,3.028 -1.818,9.081 -3.782,11.423 -5.901,7.037 -14.244,13.909 -20.927,20.254 -14.25,13.529 -29.009,26.506 -43.212,40.042 -1.755,1.717 -3.553,3.39 -5.39,5.018 z"
     id="path3512"
     style="display:inline;fill:#ef2d56;fill-opacity:1" />
  <path
     fill="#444444"
     d="m 77.824131,329.64053 c 17.353,16.819 36.296999,33.665 54.162999,50.066 l 74.262,68.516 c 14.244,12.921 28.393,25.946 42.446,39.076 4.266,4.042 9.51,8.338 13.376,12.399 7.728,8.463 11.11,19.713 10.709,30.945 -0.751,21.0424 -16.713,32.2097 -30.856,45.2082 l -33.242,30.7164 c -2.682,-2.1629 -7.314,-6.8189 -9.993,-9.3182 l -19.27,-17.8509 -63.852,-59.6655 -79.465002,-73.92 c -8.283,-7.835 -16.701,-15.398 -24.936,-23.381 -4.8540003,-4.706 -6.3850003,-9.225 -6.6530003,-16.054 -0.119,-3.028 1.818,-9.081 3.782,-11.423 5.9010003,-7.037 14.2440003,-13.909 20.9270003,-20.254 14.250003,-13.529 29.009003,-26.506 43.212003,-40.042 1.755,-1.717 3.553,-3.39 5.39,-5.018 z"
     id="path4095"
     style="display:inline;fill:#005249;fill-opacity:1" />
  <path
     fill="#444444"
     d="M 289.71127,488.56968 C 266.17342,465.75616 240.47752,442.90602 216.24383,420.65947 L 115.51384,327.72343 C 96.193081,310.19721 77.001181,292.52992 57.939501,274.7202 52.153041,269.23758 45.040001,263.41043 39.796111,257.90203 29.313743,246.4227 24.726352,231.16305 25.270274,215.92781 26.28894,187.38561 47.940021,172.23813 67.123781,154.60678 l 45.089899,-41.66414 c 3.6379,2.93378 9.92081,9.24925 13.55464,12.63933 l 26.1381,24.21321 86.60973,80.9311 107.78742,100.26611 c 11.23517,10.6275 22.65346,20.88605 33.82353,31.71431 6.58403,6.38328 8.6607,12.51291 9.02422,21.77586 0.16141,4.10722 -2.46596,12.3176 -5.12996,15.49432 -8.00419,9.54508 -19.32075,18.86636 -28.38567,27.4728 -19.32889,18.35092 -39.3482,35.9531 -58.61335,54.31352 -2.3805,2.32896 -4.81934,4.59824 -7.31107,6.80648 z"
     id="path4097"
     style="display:inline;fill:#facc15;fill-opacity:1;stroke-width:1.35641" />
  <text
     xml:space="preserve"
     id="text14594"
     style="font-style:normal;font-variant:normal;font-weight:normal;font-stretch:normal;font-size:64px;font-family:'ITC Avant Garde Gothic';-inkscape-font-specification:'ITC Avant Garde Gothic, Normal';font-variant-ligatures:normal;font-variant-caps:normal;font-variant-numeric:normal;font-variant-east-asian:normal;letter-spacing:-5.08258px;writing-mode:lr-tb;direction:ltr;text-orientation:upright;white-space:pre;shape-inside:url(#rect14596);display:inline;fill:#363537;fill-opacity:1;stroke-width:75.5906"
     transform="matrix(7.2941499,0,0,7.2941499,-3356.8165,-812.51114)"><tspan
       x="525.94922"
       y="193.07891"
       id="tspan14483">selections</tspan></text>
  <text
     xml:space="preserve"
     style="font-style:normal;font-variant:normal;font-weight:normal;font-stretch:normal;font-size:261.896px;font-family:'ITC Avant Garde Gothic';-inkscape-font-specification:'ITC Avant Garde Gothic, Normal';font-variant-ligatures:normal;font-variant-caps:normal;font-variant-numeric:normal;font-variant-east-asian:normal;letter-spacing:-20px;writing-mode:lr-tb;direction:ltr;text-orientation:upright;fill:#363537;fill-opacity:1;stroke-width:265.139"
     x="479.75754"
     y="210.77158"
     id="text14662"><tspan
       sodipodi:role="line"
       id="tspan14660"
       x="479.75754"
       y="210.77158"
       style="font-style:normal;font-variant:normal;font-weight:normal;font-stretch:normal;font-size:261.896px;font-family:'ITC Avant Garde Gothic';-inkscape-font-specification:'ITC Avant Garde Gothic, Normal';font-variant-ligatures:normal;font-variant-caps:normal;font-variant-numeric:normal;font-variant-east-asian:normal;stroke-width:265.139;fill:#363537;fill-opacity:1">system by</tspan></text>
</svg>
