<?xml version="1.0" encoding="utf-8" ?>
<svg xmlns="http://www.w3.org/2000/svg" xmlns:xlink="http://www.w3.org/1999/xlink" width="32" height="32" viewBox="0 0 32 32">
   <path fill="#276388" d="M14 13.5C14.5 14 15.5 15 16 15.5C16.5 16 15.5 17.5 14.5 17C14.3 16.8 14.1 16.6 13.9 16.4L12.6 15.1C11.5 14 11 13.2 10.7 11.7C10.2 9 12.1 6.5 14.8 5.9C15.5 5.8 16.2 5.7 16.8 5.6C18.2 5.5 19.6 6.1 20.6 7.1C21.1 7.6 22.2 8.5 22.5 9C23.2 9.9 22.1 10.4 21.3 10.4C20.6 10.4 19.8 9.2 19.1 8.7C17.1 7.5 14.9 7.5 13.6 8.8C12.6 9.8 12.4 11.7 13.6 12.8C13.9 13.1 14.2 13.3 14 13.5Z"/>
   <path fill="#E33913" d="M12.8 21.8C13.3 21.2 13.9 20.6 14.3 20.1C14.6 20.3 14.9 20.5 15.2 20.6C17.3 21.5 19.5 19.4 19.1 16.4C18.9 15.6 18.3 15.2 17.8 14.7C17.4 14.3 17 13.9 16.6 13.5C16.1 13 15.6 12.5 16 11.7C16.3 11.2 17 11 17.5 11.4C18 11.7 18.9 12.7 19.3 13.1C20.3 14 21 14.8 21.3 16.4C22 19.4 20.1 22.3 17.1 22.9C15.8 23.1 14.2 22.9 12.8 21.8Z"/>
   <path fill="#FDC901" d="M14.3 20.1C13.9 20.6 13.3 21.2 12.8 21.8C12.4 21.6 12.1 21.2 11.8 20.8L11 20C10.7 19.7 10.3 19.4 10.3 18.9C10.2 18.3 10.7 17.8 11.3 17.7C11.9 17.6 12.2 18.1 12.5 18.4C13 18.9 13.6 19.5 14.3 20.1Z"/>
</svg>